<mxfile host="app.diagrams.net" modified="2024-04-06T21:53:05.817Z" agent="Mozilla/5.0 (Macintosh; Intel Mac OS X 10_15_7) AppleWebKit/537.36 (KHTML, like Gecko) Chrome/123.0.0.0 Safari/537.36" etag="VOQa-A6dDxH3oJKQAE6z" version="24.2.2" type="device">
  <diagram name="Page-1" id="Xa4yKJopRgLJnatAYZEr">
    <mxGraphModel dx="1530" dy="1011" grid="1" gridSize="10" guides="1" tooltips="1" connect="1" arrows="1" fold="1" page="1" pageScale="1" pageWidth="850" pageHeight="1100" math="0" shadow="0">
      <root>
        <mxCell id="0" />
        <mxCell id="1" parent="0" />
        <mxCell id="JbFHPF_kHavUvdsXXp3s-4" style="edgeStyle=orthogonalEdgeStyle;rounded=0;orthogonalLoop=1;jettySize=auto;html=1;endArrow=cross;endFill=0;" parent="1" source="JbFHPF_kHavUvdsXXp3s-1" edge="1">
          <mxGeometry relative="1" as="geometry">
            <mxPoint x="90" y="540" as="targetPoint" />
          </mxGeometry>
        </mxCell>
        <mxCell id="JbFHPF_kHavUvdsXXp3s-1" value="Pharmacy Manager" style="rounded=0;whiteSpace=wrap;html=1;" parent="1" vertex="1">
          <mxGeometry x="30" y="30" width="120" height="60" as="geometry" />
        </mxCell>
        <mxCell id="JbFHPF_kHavUvdsXXp3s-5" style="edgeStyle=orthogonalEdgeStyle;rounded=0;orthogonalLoop=1;jettySize=auto;html=1;endArrow=cross;endFill=0;" parent="1" source="JbFHPF_kHavUvdsXXp3s-7" edge="1">
          <mxGeometry relative="1" as="geometry">
            <mxPoint x="380" y="540" as="targetPoint" />
            <Array as="points">
              <mxPoint x="380" y="380" />
              <mxPoint x="381" y="380" />
            </Array>
          </mxGeometry>
        </mxCell>
        <mxCell id="JbFHPF_kHavUvdsXXp3s-2" value="POS System" style="rounded=0;whiteSpace=wrap;html=1;" parent="1" vertex="1">
          <mxGeometry x="320" y="30" width="120" height="60" as="geometry" />
        </mxCell>
        <mxCell id="JbFHPF_kHavUvdsXXp3s-6" style="edgeStyle=orthogonalEdgeStyle;rounded=0;orthogonalLoop=1;jettySize=auto;html=1;endArrow=cross;endFill=0;" parent="1" edge="1">
          <mxGeometry relative="1" as="geometry">
            <mxPoint x="659.5" y="540" as="targetPoint" />
            <Array as="points">
              <mxPoint x="660" y="540" />
            </Array>
            <mxPoint x="659.5" y="230" as="sourcePoint" />
          </mxGeometry>
        </mxCell>
        <mxCell id="JbFHPF_kHavUvdsXXp3s-3" value="Employee Service" style="rounded=0;whiteSpace=wrap;html=1;" parent="1" vertex="1">
          <mxGeometry x="600" y="30" width="120" height="60" as="geometry" />
        </mxCell>
        <mxCell id="JbFHPF_kHavUvdsXXp3s-8" value="" style="edgeStyle=orthogonalEdgeStyle;rounded=0;orthogonalLoop=1;jettySize=auto;html=1;endArrow=none;endFill=0;" parent="1" source="JbFHPF_kHavUvdsXXp3s-2" target="JbFHPF_kHavUvdsXXp3s-7" edge="1">
          <mxGeometry relative="1" as="geometry">
            <mxPoint x="380" y="540" as="targetPoint" />
            <mxPoint x="380" y="90" as="sourcePoint" />
            <Array as="points">
              <mxPoint x="380" y="150" />
              <mxPoint x="380" y="150" />
            </Array>
          </mxGeometry>
        </mxCell>
        <mxCell id="JbFHPF_kHavUvdsXXp3s-7" value="" style="html=1;points=[[0,0,0,0,5],[0,1,0,0,-5],[1,0,0,0,5],[1,1,0,0,-5]];perimeter=orthogonalPerimeter;outlineConnect=0;targetShapes=umlLifeline;portConstraint=eastwest;newEdgeStyle={&quot;curved&quot;:0,&quot;rounded&quot;:0};" parent="1" vertex="1">
          <mxGeometry x="375" y="140" width="10" height="350" as="geometry" />
        </mxCell>
        <mxCell id="JbFHPF_kHavUvdsXXp3s-15" value="" style="edgeStyle=orthogonalEdgeStyle;rounded=0;orthogonalLoop=1;jettySize=auto;html=1;endArrow=none;endFill=0;" parent="1" source="JbFHPF_kHavUvdsXXp3s-3" target="JbFHPF_kHavUvdsXXp3s-14" edge="1">
          <mxGeometry relative="1" as="geometry">
            <mxPoint x="660" y="540" as="targetPoint" />
            <mxPoint x="660" y="90" as="sourcePoint" />
            <Array as="points">
              <mxPoint x="660" y="140" />
              <mxPoint x="660" y="140" />
            </Array>
          </mxGeometry>
        </mxCell>
        <mxCell id="JbFHPF_kHavUvdsXXp3s-14" value="" style="html=1;points=[[0,0,0,0,5],[0,1,0,0,-5],[1,0,0,0,5],[1,1,0,0,-5]];perimeter=orthogonalPerimeter;outlineConnect=0;targetShapes=umlLifeline;portConstraint=eastwest;newEdgeStyle={&quot;curved&quot;:0,&quot;rounded&quot;:0};" parent="1" vertex="1">
          <mxGeometry x="655" y="130" width="10" height="100" as="geometry" />
        </mxCell>
        <mxCell id="JbFHPF_kHavUvdsXXp3s-19" value="" style="endArrow=classic;html=1;rounded=0;" parent="1" edge="1">
          <mxGeometry width="50" height="50" relative="1" as="geometry">
            <mxPoint x="385" y="160" as="sourcePoint" />
            <mxPoint x="655" y="160" as="targetPoint" />
          </mxGeometry>
        </mxCell>
        <mxCell id="JbFHPF_kHavUvdsXXp3s-20" value="Calculate the payroll" style="edgeLabel;html=1;align=center;verticalAlign=middle;resizable=0;points=[];" parent="JbFHPF_kHavUvdsXXp3s-19" vertex="1" connectable="0">
          <mxGeometry x="-0.1069" y="-2" relative="1" as="geometry">
            <mxPoint as="offset" />
          </mxGeometry>
        </mxCell>
        <mxCell id="JbFHPF_kHavUvdsXXp3s-22" value="" style="html=1;points=[[0,0,0,0,5],[0,1,0,0,-5],[1,0,0,0,5],[1,1,0,0,-5]];perimeter=orthogonalPerimeter;outlineConnect=0;targetShapes=umlLifeline;portConstraint=eastwest;newEdgeStyle={&quot;curved&quot;:0,&quot;rounded&quot;:0};" parent="1" vertex="1">
          <mxGeometry x="655" y="260" width="10" height="80" as="geometry" />
        </mxCell>
        <mxCell id="JbFHPF_kHavUvdsXXp3s-23" value="" style="endArrow=classic;html=1;rounded=0;" parent="1" edge="1">
          <mxGeometry width="50" height="50" relative="1" as="geometry">
            <mxPoint x="385" y="290" as="sourcePoint" />
            <mxPoint x="655" y="290" as="targetPoint" />
            <Array as="points">
              <mxPoint x="620" y="290" />
            </Array>
          </mxGeometry>
        </mxCell>
        <mxCell id="JbFHPF_kHavUvdsXXp3s-24" value="Request employee attendence" style="edgeLabel;html=1;align=center;verticalAlign=middle;resizable=0;points=[];" parent="JbFHPF_kHavUvdsXXp3s-23" vertex="1" connectable="0">
          <mxGeometry x="-0.0053" relative="1" as="geometry">
            <mxPoint as="offset" />
          </mxGeometry>
        </mxCell>
        <mxCell id="JbFHPF_kHavUvdsXXp3s-40" style="edgeStyle=orthogonalEdgeStyle;rounded=0;orthogonalLoop=1;jettySize=auto;html=1;endArrow=cross;endFill=0;" parent="1" source="JbFHPF_kHavUvdsXXp3s-25" edge="1">
          <mxGeometry relative="1" as="geometry">
            <mxPoint x="1160" y="550" as="targetPoint" />
          </mxGeometry>
        </mxCell>
        <mxCell id="JbFHPF_kHavUvdsXXp3s-25" value="Pharmacy Owner" style="rounded=0;whiteSpace=wrap;html=1;" parent="1" vertex="1">
          <mxGeometry x="1100" y="30" width="120" height="60" as="geometry" />
        </mxCell>
        <mxCell id="JbFHPF_kHavUvdsXXp3s-29" value="" style="html=1;points=[[0,0,0,0,5],[0,1,0,0,-5],[1,0,0,0,5],[1,1,0,0,-5]];perimeter=orthogonalPerimeter;outlineConnect=0;targetShapes=umlLifeline;portConstraint=eastwest;newEdgeStyle={&quot;curved&quot;:0,&quot;rounded&quot;:0};" parent="1" vertex="1">
          <mxGeometry x="1155" y="200" width="10" height="120" as="geometry" />
        </mxCell>
        <mxCell id="JbFHPF_kHavUvdsXXp3s-33" style="edgeStyle=orthogonalEdgeStyle;rounded=0;orthogonalLoop=1;jettySize=auto;html=1;endArrow=cross;endFill=0;" parent="1" source="JbFHPF_kHavUvdsXXp3s-34" edge="1">
          <mxGeometry relative="1" as="geometry">
            <mxPoint x="855" y="550" as="targetPoint" />
            <Array as="points">
              <mxPoint x="855" y="530" />
            </Array>
          </mxGeometry>
        </mxCell>
        <mxCell id="JbFHPF_kHavUvdsXXp3s-32" value="Web App" style="html=1;whiteSpace=wrap;" parent="1" vertex="1">
          <mxGeometry x="800" y="30" width="110" height="50" as="geometry" />
        </mxCell>
        <mxCell id="JbFHPF_kHavUvdsXXp3s-35" value="" style="edgeStyle=orthogonalEdgeStyle;rounded=0;orthogonalLoop=1;jettySize=auto;html=1;endArrow=none;endFill=0;" parent="1" source="JbFHPF_kHavUvdsXXp3s-32" target="JbFHPF_kHavUvdsXXp3s-34" edge="1">
          <mxGeometry relative="1" as="geometry">
            <mxPoint x="855" y="470" as="targetPoint" />
            <mxPoint x="855" y="80" as="sourcePoint" />
            <Array as="points">
              <mxPoint x="855" y="200" />
              <mxPoint x="855" y="200" />
            </Array>
          </mxGeometry>
        </mxCell>
        <mxCell id="JbFHPF_kHavUvdsXXp3s-34" value="" style="html=1;points=[[0,0,0,0,5],[0,1,0,0,-5],[1,0,0,0,5],[1,1,0,0,-5]];perimeter=orthogonalPerimeter;outlineConnect=0;targetShapes=umlLifeline;portConstraint=eastwest;newEdgeStyle={&quot;curved&quot;:0,&quot;rounded&quot;:0};" parent="1" vertex="1">
          <mxGeometry x="850" y="190" width="10" height="220" as="geometry" />
        </mxCell>
        <mxCell id="JbFHPF_kHavUvdsXXp3s-37" value="" style="endArrow=none;startArrow=classic;html=1;rounded=0;entryX=0;entryY=0;entryDx=0;entryDy=5;entryPerimeter=0;endFill=0;" parent="1" source="JbFHPF_kHavUvdsXXp3s-34" target="JbFHPF_kHavUvdsXXp3s-29" edge="1">
          <mxGeometry width="50" height="50" relative="1" as="geometry">
            <mxPoint x="810" y="270" as="sourcePoint" />
            <mxPoint x="860" y="220" as="targetPoint" />
          </mxGeometry>
        </mxCell>
        <mxCell id="JbFHPF_kHavUvdsXXp3s-38" value="Request payrol report" style="edgeLabel;html=1;align=center;verticalAlign=middle;resizable=0;points=[];" parent="JbFHPF_kHavUvdsXXp3s-37" vertex="1" connectable="0">
          <mxGeometry x="-0.0207" y="-1" relative="1" as="geometry">
            <mxPoint as="offset" />
          </mxGeometry>
        </mxCell>
        <mxCell id="JbFHPF_kHavUvdsXXp3s-41" value="" style="endArrow=classic;html=1;rounded=0;entryX=0.5;entryY=0.571;entryDx=0;entryDy=0;entryPerimeter=0;" parent="1" edge="1">
          <mxGeometry width="50" height="50" relative="1" as="geometry">
            <mxPoint x="860" y="249.99999999999997" as="sourcePoint" />
            <mxPoint x="1160" y="249.99999999999997" as="targetPoint" />
          </mxGeometry>
        </mxCell>
        <mxCell id="JbFHPF_kHavUvdsXXp3s-42" value="Display payrol report" style="edgeLabel;html=1;align=center;verticalAlign=middle;resizable=0;points=[];" parent="JbFHPF_kHavUvdsXXp3s-41" vertex="1" connectable="0">
          <mxGeometry x="-0.0467" y="1" relative="1" as="geometry">
            <mxPoint as="offset" />
          </mxGeometry>
        </mxCell>
        <mxCell id="JbFHPF_kHavUvdsXXp3s-43" value="" style="endArrow=classic;html=1;rounded=0;" parent="1" source="JbFHPF_kHavUvdsXXp3s-14" edge="1">
          <mxGeometry width="50" height="50" relative="1" as="geometry">
            <mxPoint x="810" y="270" as="sourcePoint" />
            <mxPoint x="850" y="220" as="targetPoint" />
          </mxGeometry>
        </mxCell>
        <mxCell id="JbFHPF_kHavUvdsXXp3s-44" value="Send the response" style="edgeLabel;html=1;align=center;verticalAlign=middle;resizable=0;points=[];" parent="JbFHPF_kHavUvdsXXp3s-43" vertex="1" connectable="0">
          <mxGeometry x="0.2432" relative="1" as="geometry">
            <mxPoint as="offset" />
          </mxGeometry>
        </mxCell>
        <mxCell id="JbFHPF_kHavUvdsXXp3s-45" value="" style="endArrow=classic;html=1;rounded=0;dashed=1;" parent="1" source="JbFHPF_kHavUvdsXXp3s-34" target="JbFHPF_kHavUvdsXXp3s-14" edge="1">
          <mxGeometry width="50" height="50" relative="1" as="geometry">
            <mxPoint x="810" y="270" as="sourcePoint" />
            <mxPoint x="860" y="220" as="targetPoint" />
            <Array as="points">
              <mxPoint x="700" y="200" />
            </Array>
          </mxGeometry>
        </mxCell>
        <mxCell id="JbFHPF_kHavUvdsXXp3s-46" value="Request visualization" style="edgeLabel;html=1;align=center;verticalAlign=middle;resizable=0;points=[];" parent="JbFHPF_kHavUvdsXXp3s-45" vertex="1" connectable="0">
          <mxGeometry x="-0.027" y="-2" relative="1" as="geometry">
            <mxPoint as="offset" />
          </mxGeometry>
        </mxCell>
        <mxCell id="UcIZNVUN4u4BKbQV7i4l-4" value="" style="endArrow=classic;html=1;rounded=0;dashed=1;" edge="1" parent="1">
          <mxGeometry width="50" height="50" relative="1" as="geometry">
            <mxPoint x="655" y="320" as="sourcePoint" />
            <mxPoint x="385" y="320" as="targetPoint" />
            <Array as="points">
              <mxPoint x="420" y="320" />
            </Array>
          </mxGeometry>
        </mxCell>
        <mxCell id="UcIZNVUN4u4BKbQV7i4l-5" value="Send the employee attendence" style="edgeLabel;html=1;align=center;verticalAlign=middle;resizable=0;points=[];" vertex="1" connectable="0" parent="UcIZNVUN4u4BKbQV7i4l-4">
          <mxGeometry x="0.1142" y="1" relative="1" as="geometry">
            <mxPoint as="offset" />
          </mxGeometry>
        </mxCell>
        <mxCell id="UcIZNVUN4u4BKbQV7i4l-8" value="" style="endArrow=none;startArrow=classic;html=1;rounded=0;entryX=0;entryY=0;entryDx=0;entryDy=5;entryPerimeter=0;endFill=0;" edge="1" parent="1">
          <mxGeometry width="50" height="50" relative="1" as="geometry">
            <mxPoint x="860" y="300" as="sourcePoint" />
            <mxPoint x="1155" y="300" as="targetPoint" />
          </mxGeometry>
        </mxCell>
        <mxCell id="UcIZNVUN4u4BKbQV7i4l-9" value="Request update payrol report" style="edgeLabel;html=1;align=center;verticalAlign=middle;resizable=0;points=[];" vertex="1" connectable="0" parent="UcIZNVUN4u4BKbQV7i4l-8">
          <mxGeometry x="-0.0207" y="-1" relative="1" as="geometry">
            <mxPoint as="offset" />
          </mxGeometry>
        </mxCell>
        <mxCell id="UcIZNVUN4u4BKbQV7i4l-10" value="" style="endArrow=classic;html=1;rounded=0;entryX=0;entryY=0;entryDx=0;entryDy=5;entryPerimeter=0;" edge="1" parent="1">
          <mxGeometry width="50" height="50" relative="1" as="geometry">
            <mxPoint x="90" y="160" as="sourcePoint" />
            <mxPoint x="374.9999999999999" y="160" as="targetPoint" />
            <Array as="points">
              <mxPoint x="320" y="160" />
            </Array>
          </mxGeometry>
        </mxCell>
        <mxCell id="UcIZNVUN4u4BKbQV7i4l-11" value="Request payrol information" style="edgeLabel;html=1;align=center;verticalAlign=middle;resizable=0;points=[];" vertex="1" connectable="0" parent="UcIZNVUN4u4BKbQV7i4l-10">
          <mxGeometry x="-0.0996" y="1" relative="1" as="geometry">
            <mxPoint as="offset" />
          </mxGeometry>
        </mxCell>
        <mxCell id="UcIZNVUN4u4BKbQV7i4l-12" value="" style="endArrow=classic;html=1;rounded=0;dashed=1;" edge="1" parent="1" source="JbFHPF_kHavUvdsXXp3s-7">
          <mxGeometry width="50" height="50" relative="1" as="geometry">
            <mxPoint x="365" y="220" as="sourcePoint" />
            <mxPoint x="90" y="220" as="targetPoint" />
          </mxGeometry>
        </mxCell>
        <mxCell id="UcIZNVUN4u4BKbQV7i4l-13" value="Send the payrol response" style="edgeLabel;html=1;align=center;verticalAlign=middle;resizable=0;points=[];" vertex="1" connectable="0" parent="UcIZNVUN4u4BKbQV7i4l-12">
          <mxGeometry x="0.1142" y="1" relative="1" as="geometry">
            <mxPoint as="offset" />
          </mxGeometry>
        </mxCell>
      </root>
    </mxGraphModel>
  </diagram>
</mxfile>
